<?xml version="1.0" encoding="UTF-8" standalone="no"?>
<!-- Created with Inkscape (http://www.inkscape.org/) -->

<svg
   width="108"
   height="108"
   viewBox="0 0 28.575 28.575001"
   version="1.1"
   id="svg8512"
   xmlns="http://www.w3.org/2000/svg"
   xmlns:svg="http://www.w3.org/2000/svg">
  <defs
     id="defs8509" />
  <g>
    <path
       id="path9914"
       style="fill:#000000;stroke-width:0.249999;stroke-linecap:round;stroke-linejoin:round"
       d="M 14.109733 0.0010335287 A 14.2875 14.2875 0 0 0 0.00051676433 14.405839 A 14.2875 14.2875 0 0 0 14.346928 28.575 A 14.2875 14.2875 0 0 0 28.575 14.2875 L 28.572933 14.050305 A 14.2875 14.2875 0 0 0 14.109733 0.0010335287 z M 15.535486 4.769218 L 23.818185 8.3183555 L 23.818185 12.459705 L 15.535486 8.9110841 L 15.535486 8.9105674 L 13.050883 10.019027 C 10.763711 11.03946 8.9095338 13.720637 8.9095338 16.007809 C 8.9095332 18.294977 10.763711 19.322159 13.050883 18.301726 L 15.535486 17.193266 L 15.535486 17.193783 L 18.848462 18.613334 L 18.848462 22.754167 L 15.535486 21.335132 L 15.535486 21.334615 L 13.050883 22.443075 C 8.4765398 24.483939 4.7681845 22.430103 4.7681845 17.855758 C 4.7681845 13.281412 8.4765398 7.9185431 13.050883 5.8776775 L 15.535486 4.769218 z M 15.535486 10.981759 L 21.333065 13.465845 L 21.333065 17.607194 L 15.535486 15.123108 L 15.535486 10.981759 z " />
  </g>
</svg>
